<?xml version="1.0" encoding="iso-8859-1"?>
<!-- Uploaded to: SVG Repo, www.svgrepo.com, Generator: SVG Repo Mixer Tools -->
<!DOCTYPE svg PUBLIC "-//W3C//DTD SVG 1.1//EN" "http://www.w3.org/Graphics/SVG/1.1/DTD/svg11.dtd">
<svg fill="#000000" height="800px" width="800px" version="1.1" id="Capa_1" xmlns="http://www.w3.org/2000/svg" xmlns:xlink="http://www.w3.org/1999/xlink" 
	 viewBox="0 0 60 60" xml:space="preserve">
<g>
	<circle cx="31" cy="40" r="1"/>
	<circle cx="37" cy="29" r="1"/>
	<circle cx="28" cy="32" r="1"/>
	<circle cx="30" cy="24" r="1"/>
	<circle cx="36" cy="16" r="1"/>
	<circle cx="29" cy="10" r="1"/>
	<path d="M21,13h2c0.553,0,1-0.448,1-1s-0.447-1-1-1h-2c-0.553,0-1,0.448-1,1S20.447,13,21,13z"/>
	<path d="M21,17h2c0.553,0,1-0.448,1-1s-0.447-1-1-1h-2c-0.553,0-1,0.448-1,1S20.447,17,21,17z"/>
	<path d="M21,21h2c0.553,0,1-0.448,1-1s-0.447-1-1-1h-2c-0.553,0-1,0.448-1,1S20.447,21,21,21z"/>
	<path d="M21,25h2c0.553,0,1-0.448,1-1s-0.447-1-1-1h-2c-0.553,0-1,0.448-1,1S20.447,25,21,25z"/>
	<path d="M21,29h2c0.553,0,1-0.448,1-1s-0.447-1-1-1h-2c-0.553,0-1,0.448-1,1S20.447,29,21,29z"/>
	<path d="M21,33h2c0.553,0,1-0.448,1-1s-0.447-1-1-1h-2c-0.553,0-1,0.448-1,1S20.447,33,21,33z"/>
	<path d="M21,37h2c0.553,0,1-0.448,1-1s-0.447-1-1-1h-2c-0.553,0-1,0.448-1,1S20.447,37,21,37z"/>
	<path d="M21,41h2c0.553,0,1-0.448,1-1s-0.447-1-1-1h-2c-0.553,0-1,0.448-1,1S20.447,41,21,41z"/>
	<path d="M45.148,3H36V0H24v3h-9.148C13.279,3,12,4.279,12,5.852v39.297C12,46.721,13.279,48,14.852,48H26v3h3v3.799
		c0,0.876-0.365,1.732-1.002,2.35c-0.59,0.572-1.315,0.874-2.128,0.85C23.7,57.93,22,56.173,22,54h-0.007
		c-0.13-2.763-2.141-4.89-4.779-4.996c-1.33-0.061-2.584,0.437-3.563,1.379C12.602,51.391,12,52.806,12,54.266V59
		c0,0.552,0.447,1,1,1s1-0.448,1-1v-4.734c0-0.918,0.378-1.808,1.036-2.44c0.584-0.562,1.341-0.845,2.098-0.823
		C18.795,51.069,20,52.45,20,54.286h0.007c0.144,3.127,2.64,5.611,5.801,5.711c1.334,0.043,2.599-0.46,3.582-1.412
		c1.023-0.992,1.61-2.372,1.61-3.786V51h3v-3h11.148C46.721,48,48,46.721,48,45.148V5.852C48,4.279,46.721,3,45.148,3z M28,2h1
		c0-0.552,0.447-1,1-1s1,0.448,1,1h1c0.553,0,1,0.448,1,1s-0.447,1-1,1h-1c0,0.552-0.447,1-1,1s-1-0.448-1-1h-1
		c-0.553,0-1-0.448-1-1S27.447,2,28,2z M45,45H34v-2h-8v2H15V6h30V45z"/>
</g>
</svg>